<?xml version="1.0" encoding="UTF-8" standalone="no"?>
<svg
   xmlns:dc="http://purl.org/dc/elements/1.1/"
   xmlns:cc="http://creativecommons.org/ns#"
   xmlns:rdf="http://www.w3.org/1999/02/22-rdf-syntax-ns#"
   xmlns:svg="http://www.w3.org/2000/svg"
   xmlns="http://www.w3.org/2000/svg"
   xmlns:xlink="http://www.w3.org/1999/xlink"
   xmlns:sodipodi="http://sodipodi.sourceforge.net/DTD/sodipodi-0.dtd"
   xmlns:inkscape="http://www.inkscape.org/namespaces/inkscape"
   version="1.1"
   id="Layer_1"
   x="0px"
   y="0px"
   viewBox="0 0 2199.2663 397.36264"
   xml:space="preserve"
   sodipodi:docname="SPIDER_SEARCH_Rockwell.svg"
   inkscape:version="1.0.2-2 (e86c870879, 2021-01-15)"
   width="2199.2664"
   height="397.36264"><metadata
   id="metadata56"><rdf:RDF><cc:Work
       rdf:about=""><dc:format>image/svg+xml</dc:format><dc:type
         rdf:resource="http://purl.org/dc/dcmitype/StillImage" /><dc:title /></cc:Work></rdf:RDF></metadata><defs
   id="defs54"><linearGradient
     id="A"
     y2="13.056044"
     x2="59.034363"
     y1="13.056044"
     x1="32.914318"
     gradientTransform="matrix(0.15492272,0,0,0.2234661,115.18551,-1.2043893)"
     gradientUnits="userSpaceOnUse"><stop
       stop-color="#272023"
       offset="10.7%"
       id="stop143" /><stop
       stop-color="#735f5d"
       offset="100%"
       id="stop145" /></linearGradient><radialGradient
     id="B"
     cy="0.5"
     cx="0.5"
     r="0.50999999"
     fx="0.5"
     fy="0.5"><stop
       stop-color="#251e22"
       offset=".6%"
       id="stop148" /><stop
       stop-color="#272023"
       offset="69.1%"
       id="stop150" /></radialGradient><linearGradient
     id="C"
     y2="42.989544"
     x2="27.541838"
     y1="42.989544"
     x1="-0.0082959179"
     gradientTransform="matrix(0.18874049,0,0,0.18342634,115.18551,-1.2043893)"
     gradientUnits="userSpaceOnUse"><stop
       stop-color="#5e4e4c"
       offset=".6%"
       id="stop153" /><stop
       stop-color="#272023"
       offset="77.5%"
       id="stop155" /></linearGradient><linearGradient
     id="D"
     y2="45.214161"
     x2="30.631266"
     y1="45.214161"
     x1="17.866381"
     gradientTransform="matrix(0.21092086,0,0,0.16413729,115.18551,-1.2043893)"
     gradientUnits="userSpaceOnUse"><stop
       stop-color="#eb4e46"
       offset=".6%"
       id="stop158" /><stop
       stop-color="#b3544a"
       offset="100%"
       id="stop160" /></linearGradient><linearGradient
     id="E"
     y2="26.863422"
     x2="57.870155"
     y1="26.863422"
     x1="33.509441"
     gradientTransform="matrix(0.23982969,0,0,0.14435234,115.18551,-1.2043893)"
     gradientUnits="userSpaceOnUse"><stop
       stop-color="#272023"
       offset="0%"
       id="stop163" /><stop
       stop-color="#735f5d"
       offset="100%"
       id="stop165" /></linearGradient><linearGradient
     id="F"
     y2="54.915905"
     x2="41.787804"
     y1="54.915905"
     x1="26.743567"
     gradientTransform="matrix(0.30271105,0,0,0.11436642,115.18551,-1.2043893)"
     gradientUnits="userSpaceOnUse"><stop
       stop-color="#272023"
       offset="16.3%"
       id="stop168" /><stop
       stop-color="#605356"
       offset="100%"
       id="stop170" /></linearGradient><linearGradient
     id="G"
     y2="25.549492"
     x2="66.569786"
     y1="25.549492"
     x1="53.15963"
     gradientTransform="matrix(0.08304772,0,0,0.41686845,115.18551,-1.2043893)"
     gradientUnits="userSpaceOnUse"><stop
       stop-color="#272023"
       offset="16.3%"
       id="stop173" /><stop
       stop-color="#605356"
       offset="100%"
       id="stop175" /></linearGradient><linearGradient
     id="H"
     y2="27.57782"
     x2="78.034531"
     y1="27.57782"
     x1="64.445358"
     gradientTransform="matrix(0.10812265,0,0,0.32019169,115.18551,-1.2043893)"
     gradientUnits="userSpaceOnUse"><stop
       stop-color="#272023"
       offset="16.3%"
       id="stop178" /><stop
       stop-color="#605356"
       offset="100%"
       id="stop180" /></linearGradient><linearGradient
     inkscape:collect="always"
     xlink:href="#A"
     id="linearGradient585"
     gradientUnits="userSpaceOnUse"
     gradientTransform="matrix(-0.15492272,0,0,0.2234661,263.96448,-3.1561211)"
     x1="32.914318"
     y1="13.056044"
     x2="59.034363"
     y2="13.056044" /><radialGradient
     inkscape:collect="always"
     xlink:href="#B"
     id="radialGradient587"
     gradientUnits="userSpaceOnUse"
     gradientTransform="matrix(-0.21529343,0,0,0.16080369,263.96448,-3.1561211)"
     cx="25.673363"
     cy="35.195694"
     fx="25.673363"
     fy="35.195694"
     r="3.848408" /><linearGradient
     inkscape:collect="always"
     xlink:href="#C"
     id="linearGradient589"
     gradientUnits="userSpaceOnUse"
     gradientTransform="matrix(-0.18874049,0,0,0.18342634,263.96448,-3.1561211)"
     x1="-0.0082959179"
     y1="42.989544"
     x2="27.541838"
     y2="42.989544" /><radialGradient
     inkscape:collect="always"
     xlink:href="#B"
     id="radialGradient591"
     gradientUnits="userSpaceOnUse"
     gradientTransform="matrix(-0.21540079,0,0,0.16072354,263.96448,-3.1561211)"
     cx="35.223457"
     cy="39.744759"
     fx="35.223457"
     fy="39.744759"
     r="7.2354808" /><linearGradient
     inkscape:collect="always"
     xlink:href="#D"
     id="linearGradient593"
     gradientUnits="userSpaceOnUse"
     gradientTransform="matrix(-0.21092086,0,0,0.16413729,263.96448,-3.1561211)"
     x1="17.866381"
     y1="45.214161"
     x2="30.631266"
     y2="45.214161" /><linearGradient
     inkscape:collect="always"
     xlink:href="#E"
     id="linearGradient595"
     gradientUnits="userSpaceOnUse"
     gradientTransform="matrix(-0.23982969,0,0,0.14435234,263.96448,-3.1561211)"
     x1="33.509441"
     y1="26.863422"
     x2="57.870155"
     y2="26.863422" /><linearGradient
     inkscape:collect="always"
     xlink:href="#F"
     id="linearGradient597"
     gradientUnits="userSpaceOnUse"
     gradientTransform="matrix(-0.30271105,0,0,0.11436642,263.96448,-3.1561211)"
     x1="26.743567"
     y1="54.915905"
     x2="41.787804"
     y2="54.915905" /><linearGradient
     inkscape:collect="always"
     xlink:href="#G"
     id="linearGradient599"
     gradientUnits="userSpaceOnUse"
     gradientTransform="matrix(-0.08304772,0,0,0.41686845,263.96448,-3.1561211)"
     x1="53.15963"
     y1="25.549492"
     x2="66.569786"
     y2="25.549492" /><linearGradient
     inkscape:collect="always"
     xlink:href="#H"
     id="linearGradient601"
     gradientUnits="userSpaceOnUse"
     gradientTransform="matrix(-0.10812265,0,0,0.32019169,263.96448,-3.1561211)"
     x1="64.445358"
     y1="27.57782"
     x2="78.034531"
     y2="27.57782" /><linearGradient
     inkscape:collect="always"
     xlink:href="#A"
     id="linearGradient603"
     gradientUnits="userSpaceOnUse"
     gradientTransform="matrix(0.15492272,0,0,0.2234661,146.24352,-3.5671311)"
     x1="32.914318"
     y1="13.056044"
     x2="59.034363"
     y2="13.056044" /><radialGradient
     inkscape:collect="always"
     xlink:href="#B"
     id="radialGradient605"
     gradientUnits="userSpaceOnUse"
     gradientTransform="matrix(0.21529343,0,0,0.16080369,146.24352,-3.5671311)"
     cx="25.673363"
     cy="35.195694"
     fx="25.673363"
     fy="35.195694"
     r="3.848408" /><linearGradient
     inkscape:collect="always"
     xlink:href="#C"
     id="linearGradient607"
     gradientUnits="userSpaceOnUse"
     gradientTransform="matrix(0.18874049,0,0,0.18342634,146.24352,-3.5671311)"
     x1="-0.0082959179"
     y1="42.989544"
     x2="27.541838"
     y2="42.989544" /><radialGradient
     inkscape:collect="always"
     xlink:href="#B"
     id="radialGradient609"
     gradientUnits="userSpaceOnUse"
     gradientTransform="matrix(0.21540079,0,0,0.16072354,146.24352,-3.5671311)"
     cx="35.223457"
     cy="39.744759"
     fx="35.223457"
     fy="39.744759"
     r="7.2354808" /><linearGradient
     inkscape:collect="always"
     xlink:href="#D"
     id="linearGradient611"
     gradientUnits="userSpaceOnUse"
     gradientTransform="matrix(0.21092086,0,0,0.16413729,146.24352,-3.5671311)"
     x1="17.866381"
     y1="45.214161"
     x2="30.631266"
     y2="45.214161" /><linearGradient
     inkscape:collect="always"
     xlink:href="#E"
     id="linearGradient613"
     gradientUnits="userSpaceOnUse"
     gradientTransform="matrix(0.23982969,0,0,0.14435234,146.24352,-3.5671311)"
     x1="33.509441"
     y1="26.863422"
     x2="57.870155"
     y2="26.863422" /><linearGradient
     inkscape:collect="always"
     xlink:href="#F"
     id="linearGradient615"
     gradientUnits="userSpaceOnUse"
     gradientTransform="matrix(0.30271105,0,0,0.11436642,146.24352,-3.5671311)"
     x1="26.743567"
     y1="54.915905"
     x2="41.787804"
     y2="54.915905" /><linearGradient
     inkscape:collect="always"
     xlink:href="#G"
     id="linearGradient617"
     gradientUnits="userSpaceOnUse"
     gradientTransform="matrix(0.08304772,0,0,0.41686845,146.24352,-3.5671311)"
     x1="53.15963"
     y1="25.549492"
     x2="66.569786"
     y2="25.549492" /><linearGradient
     inkscape:collect="always"
     xlink:href="#H"
     id="linearGradient619"
     gradientUnits="userSpaceOnUse"
     gradientTransform="matrix(0.10812265,0,0,0.32019169,146.24352,-3.5671311)"
     x1="64.445358"
     y1="27.57782"
     x2="78.034531"
     y2="27.57782" /><linearGradient
     inkscape:collect="always"
     xlink:href="#A"
     id="linearGradient2581"
     gradientUnits="userSpaceOnUse"
     gradientTransform="matrix(0.15492272,0,0,0.2234661,110.86077,-409.37078)"
     x1="32.914318"
     y1="13.056044"
     x2="59.034363"
     y2="13.056044" /><radialGradient
     inkscape:collect="always"
     xlink:href="#B"
     id="radialGradient2583"
     gradientUnits="userSpaceOnUse"
     gradientTransform="matrix(0.21529343,0,0,0.16080369,110.86077,-409.37078)"
     cx="25.673363"
     cy="35.195694"
     fx="25.673363"
     fy="35.195694"
     r="3.848408" /><linearGradient
     inkscape:collect="always"
     xlink:href="#C"
     id="linearGradient2585"
     gradientUnits="userSpaceOnUse"
     gradientTransform="matrix(0.18874049,0,0,0.18342634,110.86077,-409.37078)"
     x1="-0.0082959179"
     y1="42.989544"
     x2="27.541838"
     y2="42.989544" /><radialGradient
     inkscape:collect="always"
     xlink:href="#B"
     id="radialGradient2587"
     gradientUnits="userSpaceOnUse"
     gradientTransform="matrix(0.21540079,0,0,0.16072354,110.86077,-409.37078)"
     cx="35.223457"
     cy="39.744759"
     fx="35.223457"
     fy="39.744759"
     r="7.2354808" /><linearGradient
     inkscape:collect="always"
     xlink:href="#D"
     id="linearGradient2589"
     gradientUnits="userSpaceOnUse"
     gradientTransform="matrix(0.21092086,0,0,0.16413729,110.86077,-409.37078)"
     x1="17.866381"
     y1="45.214161"
     x2="30.631266"
     y2="45.214161" /><linearGradient
     inkscape:collect="always"
     xlink:href="#E"
     id="linearGradient2591"
     gradientUnits="userSpaceOnUse"
     gradientTransform="matrix(0.23982969,0,0,0.14435234,110.86077,-409.37078)"
     x1="33.509441"
     y1="26.863422"
     x2="57.870155"
     y2="26.863422" /><linearGradient
     inkscape:collect="always"
     xlink:href="#F"
     id="linearGradient2593"
     gradientUnits="userSpaceOnUse"
     gradientTransform="matrix(0.30271105,0,0,0.11436642,110.86077,-409.37078)"
     x1="26.743567"
     y1="54.915905"
     x2="41.787804"
     y2="54.915905" /><linearGradient
     inkscape:collect="always"
     xlink:href="#G"
     id="linearGradient2595"
     gradientUnits="userSpaceOnUse"
     gradientTransform="matrix(0.08304772,0,0,0.41686845,110.86077,-409.37078)"
     x1="53.15963"
     y1="25.549492"
     x2="66.569786"
     y2="25.549492" /><linearGradient
     inkscape:collect="always"
     xlink:href="#H"
     id="linearGradient2597"
     gradientUnits="userSpaceOnUse"
     gradientTransform="matrix(0.10812265,0,0,0.32019169,110.86077,-409.37078)"
     x1="64.445358"
     y1="27.57782"
     x2="78.034531"
     y2="27.57782" /><linearGradient
     inkscape:collect="always"
     xlink:href="#A"
     id="linearGradient2629"
     gradientUnits="userSpaceOnUse"
     gradientTransform="matrix(0.15492272,0,0,0.2234661,119.51025,-409.37078)"
     x1="32.914318"
     y1="13.056044"
     x2="59.034363"
     y2="13.056044" /><radialGradient
     inkscape:collect="always"
     xlink:href="#B"
     id="radialGradient2631"
     gradientUnits="userSpaceOnUse"
     gradientTransform="matrix(0.21529343,0,0,0.16080369,119.51025,-409.37078)"
     cx="25.673363"
     cy="35.195694"
     fx="25.673363"
     fy="35.195694"
     r="3.848408" /><linearGradient
     inkscape:collect="always"
     xlink:href="#C"
     id="linearGradient2633"
     gradientUnits="userSpaceOnUse"
     gradientTransform="matrix(0.18874049,0,0,0.18342634,119.51025,-409.37078)"
     x1="-0.0082959179"
     y1="42.989544"
     x2="27.541838"
     y2="42.989544" /><radialGradient
     inkscape:collect="always"
     xlink:href="#B"
     id="radialGradient2635"
     gradientUnits="userSpaceOnUse"
     gradientTransform="matrix(0.21540079,0,0,0.16072354,119.51025,-409.37078)"
     cx="35.223457"
     cy="39.744759"
     fx="35.223457"
     fy="39.744759"
     r="7.2354808" /><linearGradient
     inkscape:collect="always"
     xlink:href="#D"
     id="linearGradient2637"
     gradientUnits="userSpaceOnUse"
     gradientTransform="matrix(0.21092086,0,0,0.16413729,119.51025,-409.37078)"
     x1="17.866381"
     y1="45.214161"
     x2="30.631266"
     y2="45.214161" /><linearGradient
     inkscape:collect="always"
     xlink:href="#E"
     id="linearGradient2639"
     gradientUnits="userSpaceOnUse"
     gradientTransform="matrix(0.23982969,0,0,0.14435234,119.51025,-409.37078)"
     x1="33.509441"
     y1="26.863422"
     x2="57.870155"
     y2="26.863422" /><linearGradient
     inkscape:collect="always"
     xlink:href="#F"
     id="linearGradient2641"
     gradientUnits="userSpaceOnUse"
     gradientTransform="matrix(0.30271105,0,0,0.11436642,119.51025,-409.37078)"
     x1="26.743567"
     y1="54.915905"
     x2="41.787804"
     y2="54.915905" /><linearGradient
     inkscape:collect="always"
     xlink:href="#G"
     id="linearGradient2643"
     gradientUnits="userSpaceOnUse"
     gradientTransform="matrix(0.08304772,0,0,0.41686845,119.51025,-409.37078)"
     x1="53.15963"
     y1="25.549492"
     x2="66.569786"
     y2="25.549492" /><linearGradient
     inkscape:collect="always"
     xlink:href="#H"
     id="linearGradient2645"
     gradientUnits="userSpaceOnUse"
     gradientTransform="matrix(0.10812265,0,0,0.32019169,119.51025,-409.37078)"
     x1="64.445358"
     y1="27.57782"
     x2="78.034531"
     y2="27.57782" /></defs><sodipodi:namedview
   pagecolor="#ffffff"
   bordercolor="#666666"
   borderopacity="1"
   objecttolerance="10"
   gridtolerance="10"
   guidetolerance="10"
   inkscape:pageopacity="0"
   inkscape:pageshadow="2"
   inkscape:window-width="1920"
   inkscape:window-height="991"
   id="namedview52"
   showgrid="false"
   inkscape:zoom="0.64203228"
   inkscape:cx="1099.6332"
   inkscape:cy="198.68132"
   inkscape:window-x="-9"
   inkscape:window-y="-9"
   inkscape:window-maximized="1"
   inkscape:current-layer="text513"
   inkscape:document-rotation="0" />
<style
   type="text/css"
   id="style34">
	.st0{fill:#CD163F;}
	.st1{fill:url(#SVGID_1_);}
</style>

<linearGradient
   id="SVGID_1_"
   gradientUnits="userSpaceOnUse"
   x1="67.407097"
   y1="32.851299"
   x2="275.35999"
   y2="393.0351"
   gradientTransform="matrix(1,0,0,-1,0,396)">
	<stop
   offset="0.28"
   style="stop-color:#CD163F"
   id="stop40" />
	<stop
   offset="0.9"
   style="stop-color:#F58025"
   id="stop42" />
</linearGradient>



<style
   id="style139"><![CDATA[.B{fill-rule:nonzero}.C{stroke-linejoin:miter}.D{stroke-width:.258}]]></style><g
   id="g1482"
   transform="translate(23.242193,2193.7821)"><path
     id="path489"
     style="fill:#cd163f;fill-opacity:1;stroke-width:1"
     d="m 378.12176,-1992.4167 v 84.2031 h 26.81641 v -30.6309 h 7.38086 c 3.69045,0 7.44265,0.6152 8.48828,4.3672 l 7.5664,22.0196 c 0.43055,2.4603 2.52114,4.2441 4.91993,4.2441 h 24.78711 l -9.28711,-28.1094 c -0.30754,-1.5376 -0.98364,-2.8889 -1.90625,-4.1191 -2.70633,-3.4444 -6.33638,-5.9671 -11.81055,-6.9512 v -0.2461 c 11.74793,-1.4147 18.75977,-9.4115 18.75977,-22.3281 0,-16.1765 -11.56248,-22.4492 -30.32227,-22.4492 z m 243.38477,0.061 c -5.04362,0 -9.10352,4.1215 -9.10352,9.2266 v 74.793 h 25.3418 v -31.4922 l 17.34375,25.2812 c 2.09125,3.8135 5.90531,6.211 9.84179,6.211 l 26.26368,0.1855 -25.64844,-33.8301 23.12695,-29.4004 -26.20117,-0.1836 c -3.93648,0 -7.75055,2.3975 -9.8418,6.211 l -14.88476,21.6504 v -48.6524 z m 67.16601,20.9746 15.13086,63.2305 h 28.29297 c 3.13688,0 5.78237,-2.2762 6.33594,-5.4746 l 5.41211,-37.5195 h 2.09179 l 5.41211,37.5195 c 0.55357,3.1369 3.19905,5.4746 6.33594,5.4746 h 28.29297 l 15.13086,-63.291 -25.33984,0.061 -7.50391,41.3946 -8.36523,-41.3946 h -30.20118 l -8.36523,41.3946 -7.50391,-41.3946 z m 400.75786,-20.8808 -25.2793,0.061 c -2.7064,0 -5.1683,1.6619 -6.1524,4.1836 l -31.9219,79.8985 h 26.5098 l 5.9043,-15.8692 h 30.5078 l 3.2598,9.1641 c 1.7837,3.998 5.7208,6.6426 9.9648,6.6426 h 20.7891 z m 449.8652,0.061 v 74.793 c 0,5.1051 4.0599,9.2266 9.1035,9.2266 h 16.2383 v -44.6543 h 15.3144 v -18.6368 h -15.3144 v -20.7285 z m 49.8828,0 v 13.1016 h 26.8164 v -13.1016 z m -383.2539,0.062 v 74.793 c 0,5.1051 4.0599,9.2266 9.1035,9.2266 h 17.7754 v -44.6563 h 15.3164 v -18.6367 h -15.3164 v -20.7266 z m -312.92383,0.029 c -5.04361,0 -9.10352,4.1214 -9.10352,9.2266 v 74.793 h 26.57227 v -84.0196 z m 39.30273,0 c -5.0436,0 -9.10351,4.1214 -9.10351,9.2266 v 74.793 h 26.57226 v -84.0196 z m -526.93359,17.8379 h 11.00976 c 5.47416,0 10.70118,1.1065 10.70118,8.6719 -0.0615,8.4265 -5.53563,9.166 -11.13282,9.166 h -10.57812 z m 1079.55269,1.0762 c -20.0514,0 -31.3691,12.4243 -31.3691,33.1523 v 0.2461 c 0,20.728 11.3177,33.1524 31.3691,33.1524 8.7956,0 14.5771,-3.8736 18.3906,-9.7168 v 1.414 c 0,3.7519 3.0147,6.8282 6.7051,6.8282 h 18.5742 v -63.5391 h -25.2793 v 8.1816 c -3.8135,-5.8432 -9.6565,-9.7187 -18.3906,-9.7187 z m -906.998,0.1308 c -1.20361,-0.01 -2.38763,0.015 -3.53321,0.084 -19.6824,1.1686 -31.92187,12.6713 -31.92187,33.0918 0,19.3749 11.56349,31.1235 30.50781,32.8457 10.45627,0.9841 22.20332,-1.1692 26.69336,-2.0918 1.10714,-0.2461 1.8457,-1.1693 1.8457,-2.3379 v -15.4375 c 0,0 -4.92099,0.5528 -16.60742,0.5528 -10.08723,0 -16.42187,-5.2278 -16.42187,-13.6543 0,-8.488 5.90384,-13.7168 15.4375,-13.7168 11.00985,0 17.53125,1.3535 17.53125,1.3535 v -15.6231 c 0,-1.1071 -0.73858,-2.0899 -1.84571,-2.3359 -3.87497,-0.8611 -13.26034,-2.664 -21.68554,-2.7305 z m 712.3886,0.055 c -23.6804,0 -37.8261,12.4243 -37.8261,33.2754 0,20.728 14.1457,33.1524 37.8261,33.1524 23.7419,0 37.9493,-12.3629 37.9493,-33.1524 0,-20.8511 -14.2074,-33.2754 -37.9493,-33.2754 z m 374.211,0 c -23.6804,0 -37.8262,12.4243 -37.8262,33.2754 0,20.728 14.1458,33.1524 37.8262,33.1524 23.7419,0 37.9511,-12.3629 37.9511,-33.1524 0,-20.8511 -14.2092,-33.2754 -37.9511,-33.2754 z m 90.1699,0 c -8.3035,0 -15.4379,2.9516 -20.666,8.4258 v -6.8281 h -23.3731 v 63.293 h 25.3418 v -30.5079 c 0,-8.365 4.0602,-13.8398 10.334,-13.8398 4.244,0 8.6094,1.4148 8.6094,11.8711 v 32.4766 h 25.2187 v -36.7207 c 0,-18.2062 -9.0423,-28.17 -25.4648,-28.17 z m -1257.74021,0.029 c -23.68039,0 -37.82812,12.4244 -37.82812,33.2754 0,20.7281 14.14773,33.1543 37.82812,33.1543 23.7419,0 37.94922,-12.3647 37.94922,-33.1543 0,-20.851 -14.14582,-33.2754 -37.94922,-33.2754 z m 343.76563,0 c -24.72602,-0.3076 -36.28907,12.6711 -36.28907,32.2305 0,21.4661 11.31656,34.3223 38.31836,34.3223 19.31336,0 28.04733,-7.8745 29.76954,-16.9161 0,-0.369 -0.36924,-0.9218 -0.73829,-0.9218 -2.89085,0.061 -14.8836,0.6758 -25.46289,0.6758 -10.88682,0 -14.70075,-1.1073 -16.85351,-8.1192 h 42.93164 c 1.10713,0 2.0293,-0.9222 2.0293,-2.0293 v -4.9199 c 0,-21.7737 -11.56238,-34.0148 -33.70508,-34.3223 z m 538.53318,0.094 c -7.6885,0 -14.5765,2.9516 -19.6817,8.3027 v -6.8281 h -23.1269 v 63.293 h 25.0957 v -30.5079 c 0,-8.1805 3.689,-13.4707 9.4707,-13.4707 4.121,0 7.8731,1.4147 7.8731,11.502 v 32.4766 h 25.2187 v -30.5079 c 0,-8.3035 3.5679,-13.4707 9.3496,-13.4707 4.121,0 7.8731,1.4147 7.8731,11.502 v 32.4766 h 25.0937 v -36.7207 c 0,-18.0832 -8.7941,-28.0469 -24.7246,-28.0469 -8.7955,0 -16.4233,3.7509 -21.7129,10.7012 -4.3671,-6.8888 -11.5639,-10.7012 -20.7285,-10.7012 z m -254.334,1.4746 v 36.1055 c 0,18.2062 9.1039,28.1699 25.5879,28.1699 8.3035,0 15.4379,-2.9526 20.666,-8.3653 v 0.4922 c 0,3.7519 3.0147,6.8282 6.7051,6.8282 h 16.668 v -63.2305 h -25.3399 v 27.3711 c 0,10.8254 -3.4451,16.3613 -10.334,16.3613 -4.244,0 -8.6113,-1.4148 -8.6113,-11.8711 v -31.8613 z m 464.2598,0 v 54.0664 c 0,5.1051 4.0599,9.2266 9.1035,9.2266 h 17.7129 v -63.293 z m -515.125,4.9219 8.3652,23.7421 h -17.0996 z m -233.21094,8.2109 c 7.13487,0 10.33399,5.8437 10.33399,13.1016 h -22.02149 c 0,-7.3194 2.46137,-13.1016 11.6875,-13.1016 z m 449.47064,3.4141 c 7.0733,0 11.625,5.9037 11.625,14.9453 0,9.2262 -4.4286,14.8847 -11.625,14.8847 -6.9504,0 -11.625,-5.9661 -11.625,-14.8847 0,-8.9801 4.6746,-14.9453 11.625,-14.9453 z m 374.211,0 c 7.0734,0 11.625,5.9037 11.625,14.9453 0.062,9.2262 -4.4286,14.8847 -11.625,14.8847 -6.9504,0 -11.625,-5.9661 -11.625,-14.8847 0,-8.9801 4.6746,-14.9453 11.625,-14.9453 z m -172.8965,0.061 c 7.1964,0 11.625,5.7202 11.625,14.8848 0.062,9.1647 -4.4286,14.8847 -11.625,14.8847 -6.9504,0 -11.625,-5.9661 -11.625,-14.8847 0,-8.857 4.6746,-14.8848 11.625,-14.8848 z m -994.67381,0.031 c 7.07336,0 11.625,5.9037 11.625,14.9453 0.0615,9.1646 -4.42862,14.8847 -11.625,14.8847 -6.95035,0 -11.625,-5.9661 -11.625,-14.8847 0,-8.9801 4.67465,-14.9453 11.625,-14.9453 z" /><g
     aria-label="SPIDER  SEARCH"
     id="text513"
     style="font-size:148.771px;line-height:0.85;font-family:Arial;-inkscape-font-specification:'Arial, Normal';stroke-width:1"><path
       d="m 451.75852,-2124.3601 h -54.33629 v 21.4294 h 48.37964 q 10.24253,0 14.01992,3.7774 3.77739,3.7774 3.77739,14.3105 v 8.6444 q 0,10.6058 -3.70475,14.3832 -3.70475,3.7774 -14.09256,3.7774 H 400.9817 q -10.46046,0 -14.23785,-3.7774 -3.77739,-3.8501 -3.77739,-14.3832 v -2.1066 l 11.9133,-2.7604 v 12.3492 h 57.16932 v -23.1002 h -48.23434 q -10.46046,0 -14.16521,-3.7774 -3.70475,-3.85 -3.70475,-14.3831 v -6.6831 q 0,-10.5331 3.70475,-14.3105 3.70475,-3.85 14.16521,-3.85 h 40.89749 q 10.24254,0 14.09257,3.7774 3.92267,3.7047 3.92267,13.0755 v 1.5982 l -10.96895,3.1236 z"
       style="font-style:normal;font-variant:normal;font-weight:normal;font-stretch:normal;font-family:'BankGothic Lt BT';-inkscape-font-specification:'BankGothic Lt BT';stroke-width:1"
       id="path137" /><path
       d="M 559.26881,-2124.8686 H 515.2477 v 26.805 h 44.02111 q 4.72173,0 6.46514,-1.8161 1.81606,-1.816 1.81606,-6.2472 v -10.6784 q 0,-4.4312 -1.81606,-6.2472 -1.74341,-1.8161 -6.46514,-1.8161 z m -56.87876,66.8308 v -76.7827 h 61.89106 q 8.64441,0 12.4218,3.5594 3.85003,3.4869 3.85003,11.3322 v 17.1435 q 0,7.7727 -3.85003,11.3322 -3.77739,3.4868 -12.4218,3.4868 H 515.2477 v 29.9286 z"
       style="font-style:normal;font-variant:normal;font-weight:normal;font-stretch:normal;font-family:'BankGothic Lt BT';-inkscape-font-specification:'BankGothic Lt BT';stroke-width:1"
       id="path139" /><path
       d="m 611.86168,-2058.0378 v -76.7827 h 12.85765 v 76.7827 z"
       style="font-style:normal;font-variant:normal;font-weight:normal;font-stretch:normal;font-family:'BankGothic Lt BT';-inkscape-font-specification:'BankGothic Lt BT';stroke-width:1"
       id="path141" /><path
       d="m 704.98884,-2124.3601 h -27.604 v 55.6439 h 27.604 q 18.66901,0 26.36907,-6.5378 7.70006,-6.5378 7.70006,-21.6474 0,-14.601 -7.84534,-20.9935 -7.84535,-6.4652 -26.22379,-6.4652 z m 1.81605,-10.4604 q 10.60574,0 17.57938,1.4528 7.04629,1.3802 11.91331,4.5038 7.40949,4.867 11.62273,13.3662 4.28588,8.4991 4.28588,18.5963 0,10.7511 -4.21324,19.3955 -4.1406,8.5717 -11.69537,13.5114 -4.72174,3.051 -11.76802,4.5038 -7.04629,1.4529 -17.72467,1.4529 h -42.2777 v -76.7827 z"
       style="font-style:normal;font-variant:normal;font-weight:normal;font-stretch:normal;font-family:'BankGothic Lt BT';-inkscape-font-specification:'BankGothic Lt BT';stroke-width:1"
       id="path143" /><path
       d="m 784.74985,-2058.0378 v -76.7827 h 73.94964 v 10.3151 H 797.6075 v 21.3568 h 37.33803 v 10.1699 H 797.6075 v 24.4078 h 61.67313 v 10.5331 z"
       style="font-style:normal;font-variant:normal;font-weight:normal;font-stretch:normal;font-family:'BankGothic Lt BT';-inkscape-font-specification:'BankGothic Lt BT';stroke-width:1"
       id="path145" /><path
       d="m 946.66907,-2124.8686 h -44.02111 v 26.9503 h 44.02111 q 4.79438,0 6.53779,-1.7435 1.74341,-1.7434 1.74341,-6.1019 v -11.1869 q 0,-4.3585 -1.81605,-6.1019 -1.74341,-1.8161 -6.46515,-1.8161 z m -56.87875,66.8308 v -76.7827 h 61.89105 q 8.64441,0 12.4218,3.5594 3.85003,3.4869 3.85003,11.3322 v 17.1435 q 0,7.7727 -3.85003,11.3322 -3.77739,3.4868 -12.4218,3.4868 h -11.25952 l 35.08613,29.9286 h -19.03223 l -31.2361,-29.9286 h -22.59169 v 29.9286 z"
       style="font-style:normal;font-variant:normal;font-weight:normal;font-stretch:normal;font-family:'BankGothic Lt BT';-inkscape-font-specification:'BankGothic Lt BT';stroke-width:1"
       id="path147" /><path
       d="m 1179.9955,-2124.3601 h -54.3363 v 21.4294 h 48.3796 q 10.2425,0 14.0199,3.7774 3.7774,3.7774 3.7774,14.3105 v 8.6444 q 0,10.6058 -3.7047,14.3832 -3.7048,3.7774 -14.0926,3.7774 h -44.8202 q -10.4604,0 -14.2378,-3.7774 -3.7774,-3.8501 -3.7774,-14.3832 v -2.1066 l 11.9133,-2.7604 v 12.3492 h 57.1693 v -23.1002 h -48.2343 q -10.4605,0 -14.1652,-3.7774 -3.7048,-3.85 -3.7048,-14.3831 v -6.6831 q 0,-10.5331 3.7048,-14.3105 3.7047,-3.85 14.1652,-3.85 h 40.8975 q 10.2425,0 14.0925,3.7774 3.9227,3.7047 3.9227,13.0755 v 1.5982 l -10.9689,3.1236 z"
       style="font-style:normal;font-variant:normal;font-weight:normal;font-stretch:normal;font-family:'BankGothic Lt BT';-inkscape-font-specification:'BankGothic Lt BT';stroke-width:1"
       id="path149" /><path
       d="m 1230.627,-2058.0378 v -76.7827 h 73.9497 v 10.3151 h -61.092 v 21.3568 h 37.338 v 10.1699 h -37.338 v 24.4078 h 61.6731 v 10.5331 z"
       style="font-style:normal;font-variant:normal;font-weight:normal;font-stretch:normal;font-family:'BankGothic Lt BT';-inkscape-font-specification:'BankGothic Lt BT';stroke-width:1"
       id="path151" /><path
       d="m 1348.5251,-2086.7315 h 41.3334 l -20.703,-39.2993 z m -27.8219,28.6937 41.9145,-76.7827 h 13.7294 l 42.6409,76.7827 h -14.0926 l -9.8067,-18.887 h -51.9391 l -9.8067,18.887 z"
       style="font-style:normal;font-variant:normal;font-weight:normal;font-stretch:normal;font-family:'BankGothic Lt BT';-inkscape-font-specification:'BankGothic Lt BT';stroke-width:1"
       id="path153" /><path
       d="m 1500.7103,-2124.8686 h -44.0211 v 26.9503 h 44.0211 q 4.7944,0 6.5378,-1.7435 1.7434,-1.7434 1.7434,-6.1019 v -11.1869 q 0,-4.3585 -1.8161,-6.1019 -1.7434,-1.8161 -6.4651,-1.8161 z m -56.8788,66.8308 v -76.7827 h 61.8911 q 8.6444,0 12.4218,3.5594 3.85,3.4869 3.85,11.3322 v 17.1435 q 0,7.7727 -3.85,11.3322 -3.7774,3.4868 -12.4218,3.4868 h -11.2595 l 35.0861,29.9286 h -19.0322 l -31.2361,-29.9286 h -22.5917 v 29.9286 z"
       style="font-style:normal;font-variant:normal;font-weight:normal;font-stretch:normal;font-family:'BankGothic Lt BT';-inkscape-font-specification:'BankGothic Lt BT';stroke-width:1"
       id="path155" /><path
       d="m 1622.2405,-2124.3601 h -53.2467 v 55.6439 h 53.2467 v -19.2502 l 12.8576,2.6878 v 9.0802 q 0,10.6058 -3.7047,14.3832 -3.7047,3.7774 -14.1652,3.7774 h -43.0041 q -10.4605,0 -14.2379,-3.7774 -3.7774,-3.8501 -3.7774,-14.3832 v -40.4616 q 0,-10.5331 3.7774,-14.3105 3.7774,-3.85 14.2379,-3.85 h 43.0041 q 10.4605,0 14.1652,3.7774 3.7047,3.7773 3.7047,14.3831 v 7.2642 l -12.8576,2.3972 z"
       style="font-style:normal;font-variant:normal;font-weight:normal;font-stretch:normal;font-family:'BankGothic Lt BT';-inkscape-font-specification:'BankGothic Lt BT';stroke-width:1"
       id="path157" /><path
       d="m 1668.8041,-2058.0378 v -76.7827 h 12.8576 v 31.3814 h 60.5109 v -31.3814 h 12.785 v 76.7827 h -12.785 v -34.7956 h -60.5109 v 34.7956 z"
       style="font-style:normal;font-variant:normal;font-weight:normal;font-stretch:normal;font-family:'BankGothic Lt BT';-inkscape-font-specification:'BankGothic Lt BT';stroke-width:1"
       id="path159" /></g><g
     style="fill:#ffffff;fill-rule:evenodd;stroke:#000000;stroke-width:0.186064;stroke-linecap:round;stroke-linejoin:round"
     id="g549"
     transform="matrix(5.3742389,0,0,5.374725,-25.886917,-2194.2364)"><g
       id="use517"
       style="stroke-width:0.186064"
       transform="translate(0.5,0.5)"><g
         class="B C D"
         id="g2563"><path
           d="M 49.143,0.786 43.331,0.029 c -2.023,-0.254 -5.81,1.263 -5.81,1.263 l -4.087,7.251 c -0.968,1.591 -3.216,6.811 -2.989,7.656 0.227,0.845 8.087,13.394 8.087,13.394 L 29.706,24.312 C 29.222,23.99 29.434,19.486 29.434,19.486 l 1.515,1.516 c 1.013,1.012 1.772,1.517 1.772,1.517 0,0 -0.622,-1.786 -1.886,-3.05 -1.264,-1.264 -2.1,-1.891 -2.663,-1.752 -0.563,0.139 -1.095,6.628 -0.505,7.582 0.59,0.954 8.843,6.063 8.843,6.063 l 3.284,-0.253 1.011,-2.527 c 0,0 -2.778,-4.042 -4.043,-6.568 -1.265,-2.526 -4.041,-6.824 -4.041,-6.824 0,0 1.767,-4.8 2.778,-6.317 1.011,-1.517 2.779,-5.812 2.779,-5.812 0,0 2.527,-2.021 4.802,-1.768 2.275,0.253 6.064,-0.505 6.064,-0.505 z"
           fill="url(#A)"
           id="path2551"
           style="fill:url(#linearGradient2581);stroke-width:0.00952784" /><path
           d="m 34.064,33.673 -2.421,-3.712 c 0,0 -1.614,-2.582 -2.422,-2.582 -0.808,0 -1.453,-0.486 -1.937,0 -0.484,0.486 -1.13,1.452 -1.454,2.422 l -0.484,1.613 8.717,2.26 z"
           fill="url(#B)"
           id="path2553"
           style="fill:url(#radialGradient2583);stroke-width:0.00952784" /><path
           d="m 0,55.955 c 0,0 0.324,-0.806 0.808,-1.132 0.484,-0.326 4.842,-11.299 5.328,-12.43 0.486,-1.131 8.554,-13.399 9.201,-13.238 0.647,0.161 5.327,-0.484 6.943,-0.322 1.616,0.162 3.874,1.292 4.52,1.776 0.646,0.484 1.13,1.776 1.13,1.776 l -3.39,0.968 c 0,0 -0.97,-1.128 -1.938,-1.29 -0.968,-0.162 -4.682,0 -5.65,0.162 -0.968,0.162 -9.041,9.524 -9.364,10.169 -0.323,0.645 -4.844,10.01 -5.004,10.818 L 2.26,54.825 c 0,0 -0.323,0.97 -0.967,0.97 -0.644,0 -1.293,0.16 -1.293,0.16 z"
           fill="url(#C)"
           id="path2555"
           style="fill:url(#linearGradient2585);stroke-width:0.00952784" /><path
           d="m 33.094,33.514 c 0.325,-0.484 1.779,-0.968 2.423,-1.452 0.644,-0.484 0.97,-2.422 0.97,-2.422 0,0 1.614,-0.97 3.39,-1.13 1.776,-0.16 3.39,-0.484 4.842,-0.162 1.452,0.322 2.259,0.162 2.908,0.969 0.649,0.807 1.612,4.198 1.291,5.167 -0.321,0.969 -3.229,3.389 -4.036,4.196 -0.807,0.807 -3.551,1.453 -4.36,1.453 -0.809,0 -2.097,0.323 -3.228,0.323 -1.131,0 -4.036,-3.552 -4.52,-4.198 -0.484,-0.646 -0.002,-2.261 0.319,-2.744 z"
           fill="url(#B)"
           id="path2557"
           style="fill:url(#radialGradient2587);stroke-width:0.00952784" /><path
           d="m 35.841,35.451 c 0.646,0.806 1.13,1.453 1.453,2.26 0.323,0.807 0.645,4.842 -0.807,6.134 -1.452,1.292 -3.877,3.068 -4.843,3.712 -0.966,0.644 -1.938,1.938 -3.553,1.938 -1.615,0 -3.066,-0.968 -4.842,-1.938 -1.776,-0.97 -3.552,-2.582 -4.036,-3.872 -0.484,-1.29 -0.646,-4.198 0.484,-5.814 1.13,-1.616 3.874,-4.358 3.874,-4.358 0,0 1.938,-1.452 3.714,-1.776 1.776,-0.324 3.228,-0.162 4.198,0.162 0.97,0.324 3.712,2.742 4.359,3.551 z"
           fill="#272023"
           id="path2559"
           style="stroke-width:0.00952784" /><path
           d="m 20.665,44.653 c -0.322,-0.968 -0.645,-3.068 -0.16,-4.36 0.485,-1.292 3.228,-4.682 5.166,-5.327 1.938,-0.645 3.066,-0.808 5.326,-0.645 2.26,0.163 3.714,1.936 3.714,1.936 0,0 -2.582,0 -4.037,0.486 -1.455,0.486 -3.227,1.612 -4.681,2.744 -1.454,1.132 -2.422,2.905 -2.584,3.873 -0.162,0.968 -0.16,1.454 -0.806,1.938 -0.646,0.484 -1.292,0 -1.292,0 0,0 -0.322,0.322 -0.645,-0.645 z"
           fill="url(#D)"
           id="path2561"
           style="fill:url(#linearGradient2589);stroke-width:0.00952784" /></g><path
         d="m 21.795,41.426 c 0,0 -0.323,-2.262 1.454,-3.876 1.777,-1.614 3.389,-1.776 3.389,-1.776 0,0 -1.451,0.646 -3.228,2.422 -1.777,1.776 -1.615,3.229 -1.615,3.229 z"
         stroke="none"
         opacity="0.3"
         class="B"
         id="path2565"
         style="stroke-width:0.00732973" /><g
         class="C D"
         id="g2575"><path
           d="m 44.882,29.801 c 0,0 -2.098,-9.688 -1.614,-10.656 0.484,-0.968 5.004,-3.876 6.296,-4.358 1.292,-0.482 8.719,-3.39 9.362,-3.39 0.643,0 10.495,0.484 11.141,0.645 0.646,0.161 4.52,1.778 4.52,1.778 0,0 -3.066,0 -4.842,-0.324 -1.776,-0.324 -9.365,-0.646 -10.654,-0.486 -1.289,0.16 -3.552,2.26 -4.52,2.746 -0.968,0.486 -4.682,2.584 -5.651,2.906 -0.969,0.322 -3.067,0.968 -3.229,1.776 -0.162,0.808 2.099,9.848 2.099,9.848 l -2.907,-0.482 z"
           fill="url(#E)"
           class="B"
           id="path2567"
           style="fill:url(#linearGradient2591);stroke-width:0.00952784" /><path
           d="m 67.968,37.551 c 0,0 -0.646,0.968 -1.452,0.806 -0.806,-0.162 -1.292,0.162 -1.938,-0.484 -0.646,-0.646 -6.78,-2.421 -8.396,-3.228 -1.616,-0.807 -4.842,-0.808 -5.972,-0.97 -1.13,-0.162 -3.231,-1.128 -3.715,-0.966 -0.484,0.162 0.325,0.644 -0.484,1.29 -0.809,0.646 -1.452,0.324 -1.936,-0.162 -0.484,-0.486 -0.807,-2.098 -0.323,-2.906 0.484,-0.808 0.807,-1.614 1.938,-1.776 1.131,-0.162 3.229,0.808 5.004,1.454 1.775,0.646 4.36,0.968 5.488,1.454 1.128,0.486 3.229,2.422 5.006,2.906 1.777,0.484 3.228,1.453 4.036,1.776 0.808,0.323 2.746,0.805 2.746,0.805 z"
           fill="url(#F)"
           class="B"
           id="path2569"
           style="fill:url(#linearGradient2593);stroke-width:0.00952784" /><path
           d="m 23.732,72.26 1.614,-10.98 c 0.324,-1.291 1.454,-13.883 1.616,-14.691 0.162,-0.808 -0.162,-2.744 0.322,-3.23 0.484,-0.486 0.646,-1.129 1.452,-1.129 0.806,0 0.969,1.776 0.969,1.776 l -1.615,10.17 c 0,0.808 -1.29,5.652 -1.454,6.942 -0.164,1.29 -0.807,9.846 -1.612,10.494 -0.805,0.648 -1.291,0.648 -1.291,0.648 z"
           fill="url(#G)"
           class="B"
           id="path2571"
           style="fill:url(#linearGradient2595);stroke-width:0.00952784" /><path
           d="m 44.234,58.86 c 0,0 0.646,0.645 0.97,0 0.324,-0.645 0,-1.452 -0.324,-2.584 -0.324,-1.132 -1.13,-2.583 -1.775,-4.036 -0.645,-1.453 -0.485,-7.748 -1.131,-8.717 -0.646,-0.969 -1.29,-5.652 -1.454,-6.458 -0.164,-0.806 -0.969,-1.292 -1.775,-1.292 -0.806,0 -1.292,0.97 -1.292,0.97 l 0.646,3.873 c 0.324,1.454 2.098,6.458 2.26,7.266 0.162,0.808 0.97,1.13 1.292,2.42 0.322,1.29 -0.322,2.26 0.322,3.392 0.644,1.132 1.615,2.26 1.776,3.067 l 0.485,2.097 z"
           fill="url(#H)"
           class="B"
           id="path2573"
           style="fill:url(#linearGradient2597);stroke-width:0.00952784" /></g><path
         d="m 45.29,18.538 c 0,0 -0.15,-0.997 2.885,-2.631 3.035,-1.634 5.908,-2.089 5.908,-2.089 0,0 -2.542,0.803 -5.561,2.565 -3.019,1.762 -3.23,2.154 -3.23,2.154 z m 1.413,11.274 c 0,0 0.354,-0.52 2.969,0.442 a 22.55,22.55 0 0 1 4.605,2.354 c 0,0 -1.94,-1.054 -4.602,-1.953 L 46.704,29.812 Z M 31.435,15.046 c 0,0 -0.569,-0.414 0.749,-3.464 1.318,-3.05 3.079,-5.365 3.079,-5.365 0,0 -1.368,2.259 -2.618,5.364 l -1.21,3.466 z"
         stroke="none"
         opacity="0.3"
         class="B"
         id="path2577"
         style="stroke-width:0.00732973" /></g><symbol
       id="symbol547"
       overflow="visible"
       style="stroke-width:0.0369296"><g
         class="B C D"
         id="g531"><path
           d="M 49.143,0.786 43.331,0.029 c -2.023,-0.254 -5.81,1.263 -5.81,1.263 l -4.087,7.251 c -0.968,1.591 -3.216,6.811 -2.989,7.656 0.227,0.845 8.087,13.394 8.087,13.394 L 29.706,24.312 C 29.222,23.99 29.434,19.486 29.434,19.486 l 1.515,1.516 c 1.013,1.012 1.772,1.517 1.772,1.517 0,0 -0.622,-1.786 -1.886,-3.05 -1.264,-1.264 -2.1,-1.891 -2.663,-1.752 -0.563,0.139 -1.095,6.628 -0.505,7.582 0.59,0.954 8.843,6.063 8.843,6.063 l 3.284,-0.253 1.011,-2.527 c 0,0 -2.778,-4.042 -4.043,-6.568 -1.265,-2.526 -4.041,-6.824 -4.041,-6.824 0,0 1.767,-4.8 2.778,-6.317 1.011,-1.517 2.779,-5.812 2.779,-5.812 0,0 2.527,-2.021 4.802,-1.768 2.275,0.253 6.064,-0.505 6.064,-0.505 z"
           fill="url(#A)"
           id="path519"
           style="fill:url(#linearGradient603);stroke-width:0.00952784" /><path
           d="m 34.064,33.673 -2.421,-3.712 c 0,0 -1.614,-2.582 -2.422,-2.582 -0.808,0 -1.453,-0.486 -1.937,0 -0.484,0.486 -1.13,1.452 -1.454,2.422 l -0.484,1.613 8.717,2.26 z"
           fill="url(#B)"
           id="path521"
           style="fill:url(#radialGradient605);stroke-width:0.00952784" /><path
           d="m 0,55.955 c 0,0 0.324,-0.806 0.808,-1.132 0.484,-0.326 4.842,-11.299 5.328,-12.43 0.486,-1.131 8.554,-13.399 9.201,-13.238 0.647,0.161 5.327,-0.484 6.943,-0.322 1.616,0.162 3.874,1.292 4.52,1.776 0.646,0.484 1.13,1.776 1.13,1.776 l -3.39,0.968 c 0,0 -0.97,-1.128 -1.938,-1.29 -0.968,-0.162 -4.682,0 -5.65,0.162 -0.968,0.162 -9.041,9.524 -9.364,10.169 -0.323,0.645 -4.844,10.01 -5.004,10.818 L 2.26,54.825 c 0,0 -0.323,0.97 -0.967,0.97 -0.644,0 -1.293,0.16 -1.293,0.16 z"
           fill="url(#C)"
           id="path523"
           style="fill:url(#linearGradient607);stroke-width:0.00952784" /><path
           d="m 33.094,33.514 c 0.325,-0.484 1.779,-0.968 2.423,-1.452 0.644,-0.484 0.97,-2.422 0.97,-2.422 0,0 1.614,-0.97 3.39,-1.13 1.776,-0.16 3.39,-0.484 4.842,-0.162 1.452,0.322 2.259,0.162 2.908,0.969 0.649,0.807 1.612,4.198 1.291,5.167 -0.321,0.969 -3.229,3.389 -4.036,4.196 -0.807,0.807 -3.551,1.453 -4.36,1.453 -0.809,0 -2.097,0.323 -3.228,0.323 -1.131,0 -4.036,-3.552 -4.52,-4.198 -0.484,-0.646 -0.002,-2.261 0.319,-2.744 z"
           fill="url(#B)"
           id="path525"
           style="fill:url(#radialGradient609);stroke-width:0.00952784" /><path
           d="m 35.841,35.451 c 0.646,0.806 1.13,1.453 1.453,2.26 0.323,0.807 0.645,4.842 -0.807,6.134 -1.452,1.292 -3.877,3.068 -4.843,3.712 -0.966,0.644 -1.938,1.938 -3.553,1.938 -1.615,0 -3.066,-0.968 -4.842,-1.938 -1.776,-0.97 -3.552,-2.582 -4.036,-3.872 -0.484,-1.29 -0.646,-4.198 0.484,-5.814 1.13,-1.616 3.874,-4.358 3.874,-4.358 0,0 1.938,-1.452 3.714,-1.776 1.776,-0.324 3.228,-0.162 4.198,0.162 0.97,0.324 3.712,2.742 4.359,3.551 z"
           fill="#272023"
           id="path527"
           style="stroke-width:0.00952784" /><path
           d="m 20.665,44.653 c -0.322,-0.968 -0.645,-3.068 -0.16,-4.36 0.485,-1.292 3.228,-4.682 5.166,-5.327 1.938,-0.645 3.066,-0.808 5.326,-0.645 2.26,0.163 3.714,1.936 3.714,1.936 0,0 -2.582,0 -4.037,0.486 -1.455,0.486 -3.227,1.612 -4.681,2.744 -1.454,1.132 -2.422,2.905 -2.584,3.873 -0.162,0.968 -0.16,1.454 -0.806,1.938 -0.646,0.484 -1.292,0 -1.292,0 0,0 -0.322,0.322 -0.645,-0.645 z"
           fill="url(#D)"
           id="path529"
           style="fill:url(#linearGradient611);stroke-width:0.00952784" /></g><path
         d="m 21.795,41.426 c 0,0 -0.323,-2.262 1.454,-3.876 1.777,-1.614 3.389,-1.776 3.389,-1.776 0,0 -1.451,0.646 -3.228,2.422 -1.777,1.776 -1.615,3.229 -1.615,3.229 z"
         stroke="none"
         opacity="0.3"
         class="B"
         id="path533"
         style="stroke-width:0.00732973" /><g
         class="C D"
         id="g543"><path
           d="m 44.882,29.801 c 0,0 -2.098,-9.688 -1.614,-10.656 0.484,-0.968 5.004,-3.876 6.296,-4.358 1.292,-0.482 8.719,-3.39 9.362,-3.39 0.643,0 10.495,0.484 11.141,0.645 0.646,0.161 4.52,1.778 4.52,1.778 0,0 -3.066,0 -4.842,-0.324 -1.776,-0.324 -9.365,-0.646 -10.654,-0.486 -1.289,0.16 -3.552,2.26 -4.52,2.746 -0.968,0.486 -4.682,2.584 -5.651,2.906 -0.969,0.322 -3.067,0.968 -3.229,1.776 -0.162,0.808 2.099,9.848 2.099,9.848 l -2.907,-0.482 z"
           fill="url(#E)"
           class="B"
           id="path535"
           style="fill:url(#linearGradient613);stroke-width:0.00952784" /><path
           d="m 67.968,37.551 c 0,0 -0.646,0.968 -1.452,0.806 -0.806,-0.162 -1.292,0.162 -1.938,-0.484 -0.646,-0.646 -6.78,-2.421 -8.396,-3.228 -1.616,-0.807 -4.842,-0.808 -5.972,-0.97 -1.13,-0.162 -3.231,-1.128 -3.715,-0.966 -0.484,0.162 0.325,0.644 -0.484,1.29 -0.809,0.646 -1.452,0.324 -1.936,-0.162 -0.484,-0.486 -0.807,-2.098 -0.323,-2.906 0.484,-0.808 0.807,-1.614 1.938,-1.776 1.131,-0.162 3.229,0.808 5.004,1.454 1.775,0.646 4.36,0.968 5.488,1.454 1.128,0.486 3.229,2.422 5.006,2.906 1.777,0.484 3.228,1.453 4.036,1.776 0.808,0.323 2.746,0.805 2.746,0.805 z"
           fill="url(#F)"
           class="B"
           id="path537"
           style="fill:url(#linearGradient615);stroke-width:0.00952784" /><path
           d="m 23.732,72.26 1.614,-10.98 c 0.324,-1.291 1.454,-13.883 1.616,-14.691 0.162,-0.808 -0.162,-2.744 0.322,-3.23 0.484,-0.486 0.646,-1.129 1.452,-1.129 0.806,0 0.969,1.776 0.969,1.776 l -1.615,10.17 c 0,0.808 -1.29,5.652 -1.454,6.942 -0.164,1.29 -0.807,9.846 -1.612,10.494 -0.805,0.648 -1.291,0.648 -1.291,0.648 z"
           fill="url(#G)"
           class="B"
           id="path539"
           style="fill:url(#linearGradient617);stroke-width:0.00952784" /><path
           d="m 44.234,58.86 c 0,0 0.646,0.645 0.97,0 0.324,-0.645 0,-1.452 -0.324,-2.584 -0.324,-1.132 -1.13,-2.583 -1.775,-4.036 -0.645,-1.453 -0.485,-7.748 -1.131,-8.717 -0.646,-0.969 -1.29,-5.652 -1.454,-6.458 -0.164,-0.806 -0.969,-1.292 -1.775,-1.292 -0.806,0 -1.292,0.97 -1.292,0.97 l 0.646,3.873 c 0.324,1.454 2.098,6.458 2.26,7.266 0.162,0.808 0.97,1.13 1.292,2.42 0.322,1.29 -0.322,2.26 0.322,3.392 0.644,1.132 1.615,2.26 1.776,3.067 l 0.485,2.097 z"
           fill="url(#H)"
           class="B"
           id="path541"
           style="fill:url(#linearGradient619);stroke-width:0.00952784" /></g><path
         d="m 45.29,18.538 c 0,0 -0.15,-0.997 2.885,-2.631 3.035,-1.634 5.908,-2.089 5.908,-2.089 0,0 -2.542,0.803 -5.561,2.565 -3.019,1.762 -3.23,2.154 -3.23,2.154 z m 1.413,11.274 c 0,0 0.354,-0.52 2.969,0.442 a 22.55,22.55 0 0 1 4.605,2.354 c 0,0 -1.94,-1.054 -4.602,-1.953 L 46.704,29.812 Z M 31.435,15.046 c 0,0 -0.569,-0.414 0.749,-3.464 1.318,-3.05 3.079,-5.365 3.079,-5.365 0,0 -1.368,2.259 -2.618,5.364 l -1.21,3.466 z"
         stroke="none"
         opacity="0.3"
         class="B"
         id="path545"
         style="stroke-width:0.00732973" /></symbol></g><g
     style="fill:#ffffff;fill-rule:evenodd;stroke:#000000;stroke-width:0.186064;stroke-linecap:round;stroke-linejoin:round"
     id="g583"
     transform="matrix(-5.3742389,0,0,5.374725,2178.6689,-2196.4455)"><g
       id="use551"
       style="stroke-width:0.186064"
       transform="translate(0.5,0.5)"><g
         class="B C D"
         id="g2611"><path
           d="M 49.143,0.786 43.331,0.029 c -2.023,-0.254 -5.81,1.263 -5.81,1.263 l -4.087,7.251 c -0.968,1.591 -3.216,6.811 -2.989,7.656 0.227,0.845 8.087,13.394 8.087,13.394 L 29.706,24.312 C 29.222,23.99 29.434,19.486 29.434,19.486 l 1.515,1.516 c 1.013,1.012 1.772,1.517 1.772,1.517 0,0 -0.622,-1.786 -1.886,-3.05 -1.264,-1.264 -2.1,-1.891 -2.663,-1.752 -0.563,0.139 -1.095,6.628 -0.505,7.582 0.59,0.954 8.843,6.063 8.843,6.063 l 3.284,-0.253 1.011,-2.527 c 0,0 -2.778,-4.042 -4.043,-6.568 -1.265,-2.526 -4.041,-6.824 -4.041,-6.824 0,0 1.767,-4.8 2.778,-6.317 1.011,-1.517 2.779,-5.812 2.779,-5.812 0,0 2.527,-2.021 4.802,-1.768 2.275,0.253 6.064,-0.505 6.064,-0.505 z"
           fill="url(#A)"
           id="path2599"
           style="fill:url(#linearGradient2629);stroke-width:0.00952784" /><path
           d="m 34.064,33.673 -2.421,-3.712 c 0,0 -1.614,-2.582 -2.422,-2.582 -0.808,0 -1.453,-0.486 -1.937,0 -0.484,0.486 -1.13,1.452 -1.454,2.422 l -0.484,1.613 8.717,2.26 z"
           fill="url(#B)"
           id="path2601"
           style="fill:url(#radialGradient2631);stroke-width:0.00952784" /><path
           d="m 0,55.955 c 0,0 0.324,-0.806 0.808,-1.132 0.484,-0.326 4.842,-11.299 5.328,-12.43 0.486,-1.131 8.554,-13.399 9.201,-13.238 0.647,0.161 5.327,-0.484 6.943,-0.322 1.616,0.162 3.874,1.292 4.52,1.776 0.646,0.484 1.13,1.776 1.13,1.776 l -3.39,0.968 c 0,0 -0.97,-1.128 -1.938,-1.29 -0.968,-0.162 -4.682,0 -5.65,0.162 -0.968,0.162 -9.041,9.524 -9.364,10.169 -0.323,0.645 -4.844,10.01 -5.004,10.818 L 2.26,54.825 c 0,0 -0.323,0.97 -0.967,0.97 -0.644,0 -1.293,0.16 -1.293,0.16 z"
           fill="url(#C)"
           id="path2603"
           style="fill:url(#linearGradient2633);stroke-width:0.00952784" /><path
           d="m 33.094,33.514 c 0.325,-0.484 1.779,-0.968 2.423,-1.452 0.644,-0.484 0.97,-2.422 0.97,-2.422 0,0 1.614,-0.97 3.39,-1.13 1.776,-0.16 3.39,-0.484 4.842,-0.162 1.452,0.322 2.259,0.162 2.908,0.969 0.649,0.807 1.612,4.198 1.291,5.167 -0.321,0.969 -3.229,3.389 -4.036,4.196 -0.807,0.807 -3.551,1.453 -4.36,1.453 -0.809,0 -2.097,0.323 -3.228,0.323 -1.131,0 -4.036,-3.552 -4.52,-4.198 -0.484,-0.646 -0.002,-2.261 0.319,-2.744 z"
           fill="url(#B)"
           id="path2605"
           style="fill:url(#radialGradient2635);stroke-width:0.00952784" /><path
           d="m 35.841,35.451 c 0.646,0.806 1.13,1.453 1.453,2.26 0.323,0.807 0.645,4.842 -0.807,6.134 -1.452,1.292 -3.877,3.068 -4.843,3.712 -0.966,0.644 -1.938,1.938 -3.553,1.938 -1.615,0 -3.066,-0.968 -4.842,-1.938 -1.776,-0.97 -3.552,-2.582 -4.036,-3.872 -0.484,-1.29 -0.646,-4.198 0.484,-5.814 1.13,-1.616 3.874,-4.358 3.874,-4.358 0,0 1.938,-1.452 3.714,-1.776 1.776,-0.324 3.228,-0.162 4.198,0.162 0.97,0.324 3.712,2.742 4.359,3.551 z"
           fill="#272023"
           id="path2607"
           style="stroke-width:0.00952784" /><path
           d="m 20.665,44.653 c -0.322,-0.968 -0.645,-3.068 -0.16,-4.36 0.485,-1.292 3.228,-4.682 5.166,-5.327 1.938,-0.645 3.066,-0.808 5.326,-0.645 2.26,0.163 3.714,1.936 3.714,1.936 0,0 -2.582,0 -4.037,0.486 -1.455,0.486 -3.227,1.612 -4.681,2.744 -1.454,1.132 -2.422,2.905 -2.584,3.873 -0.162,0.968 -0.16,1.454 -0.806,1.938 -0.646,0.484 -1.292,0 -1.292,0 0,0 -0.322,0.322 -0.645,-0.645 z"
           fill="url(#D)"
           id="path2609"
           style="fill:url(#linearGradient2637);stroke-width:0.00952784" /></g><path
         d="m 21.795,41.426 c 0,0 -0.323,-2.262 1.454,-3.876 1.777,-1.614 3.389,-1.776 3.389,-1.776 0,0 -1.451,0.646 -3.228,2.422 -1.777,1.776 -1.615,3.229 -1.615,3.229 z"
         stroke="none"
         opacity="0.3"
         class="B"
         id="path2613"
         style="stroke-width:0.00732973" /><g
         class="C D"
         id="g2623"><path
           d="m 44.882,29.801 c 0,0 -2.098,-9.688 -1.614,-10.656 0.484,-0.968 5.004,-3.876 6.296,-4.358 1.292,-0.482 8.719,-3.39 9.362,-3.39 0.643,0 10.495,0.484 11.141,0.645 0.646,0.161 4.52,1.778 4.52,1.778 0,0 -3.066,0 -4.842,-0.324 -1.776,-0.324 -9.365,-0.646 -10.654,-0.486 -1.289,0.16 -3.552,2.26 -4.52,2.746 -0.968,0.486 -4.682,2.584 -5.651,2.906 -0.969,0.322 -3.067,0.968 -3.229,1.776 -0.162,0.808 2.099,9.848 2.099,9.848 l -2.907,-0.482 z"
           fill="url(#E)"
           class="B"
           id="path2615"
           style="fill:url(#linearGradient2639);stroke-width:0.00952784" /><path
           d="m 67.968,37.551 c 0,0 -0.646,0.968 -1.452,0.806 -0.806,-0.162 -1.292,0.162 -1.938,-0.484 -0.646,-0.646 -6.78,-2.421 -8.396,-3.228 -1.616,-0.807 -4.842,-0.808 -5.972,-0.97 -1.13,-0.162 -3.231,-1.128 -3.715,-0.966 -0.484,0.162 0.325,0.644 -0.484,1.29 -0.809,0.646 -1.452,0.324 -1.936,-0.162 -0.484,-0.486 -0.807,-2.098 -0.323,-2.906 0.484,-0.808 0.807,-1.614 1.938,-1.776 1.131,-0.162 3.229,0.808 5.004,1.454 1.775,0.646 4.36,0.968 5.488,1.454 1.128,0.486 3.229,2.422 5.006,2.906 1.777,0.484 3.228,1.453 4.036,1.776 0.808,0.323 2.746,0.805 2.746,0.805 z"
           fill="url(#F)"
           class="B"
           id="path2617"
           style="fill:url(#linearGradient2641);stroke-width:0.00952784" /><path
           d="m 23.732,72.26 1.614,-10.98 c 0.324,-1.291 1.454,-13.883 1.616,-14.691 0.162,-0.808 -0.162,-2.744 0.322,-3.23 0.484,-0.486 0.646,-1.129 1.452,-1.129 0.806,0 0.969,1.776 0.969,1.776 l -1.615,10.17 c 0,0.808 -1.29,5.652 -1.454,6.942 -0.164,1.29 -0.807,9.846 -1.612,10.494 -0.805,0.648 -1.291,0.648 -1.291,0.648 z"
           fill="url(#G)"
           class="B"
           id="path2619"
           style="fill:url(#linearGradient2643);stroke-width:0.00952784" /><path
           d="m 44.234,58.86 c 0,0 0.646,0.645 0.97,0 0.324,-0.645 0,-1.452 -0.324,-2.584 -0.324,-1.132 -1.13,-2.583 -1.775,-4.036 -0.645,-1.453 -0.485,-7.748 -1.131,-8.717 -0.646,-0.969 -1.29,-5.652 -1.454,-6.458 -0.164,-0.806 -0.969,-1.292 -1.775,-1.292 -0.806,0 -1.292,0.97 -1.292,0.97 l 0.646,3.873 c 0.324,1.454 2.098,6.458 2.26,7.266 0.162,0.808 0.97,1.13 1.292,2.42 0.322,1.29 -0.322,2.26 0.322,3.392 0.644,1.132 1.615,2.26 1.776,3.067 l 0.485,2.097 z"
           fill="url(#H)"
           class="B"
           id="path2621"
           style="fill:url(#linearGradient2645);stroke-width:0.00952784" /></g><path
         d="m 45.29,18.538 c 0,0 -0.15,-0.997 2.885,-2.631 3.035,-1.634 5.908,-2.089 5.908,-2.089 0,0 -2.542,0.803 -5.561,2.565 -3.019,1.762 -3.23,2.154 -3.23,2.154 z m 1.413,11.274 c 0,0 0.354,-0.52 2.969,0.442 a 22.55,22.55 0 0 1 4.605,2.354 c 0,0 -1.94,-1.054 -4.602,-1.953 L 46.704,29.812 Z M 31.435,15.046 c 0,0 -0.569,-0.414 0.749,-3.464 1.318,-3.05 3.079,-5.365 3.079,-5.365 0,0 -1.368,2.259 -2.618,5.364 l -1.21,3.466 z"
         stroke="none"
         opacity="0.3"
         class="B"
         id="path2625"
         style="stroke-width:0.00732973" /></g><symbol
       id="symbol581"
       overflow="visible"
       style="stroke-width:0.0369296"><g
         class="B C D"
         id="g565"><path
           d="M 49.143,0.786 43.331,0.029 c -2.023,-0.254 -5.81,1.263 -5.81,1.263 l -4.087,7.251 c -0.968,1.591 -3.216,6.811 -2.989,7.656 0.227,0.845 8.087,13.394 8.087,13.394 L 29.706,24.312 C 29.222,23.99 29.434,19.486 29.434,19.486 l 1.515,1.516 c 1.013,1.012 1.772,1.517 1.772,1.517 0,0 -0.622,-1.786 -1.886,-3.05 -1.264,-1.264 -2.1,-1.891 -2.663,-1.752 -0.563,0.139 -1.095,6.628 -0.505,7.582 0.59,0.954 8.843,6.063 8.843,6.063 l 3.284,-0.253 1.011,-2.527 c 0,0 -2.778,-4.042 -4.043,-6.568 -1.265,-2.526 -4.041,-6.824 -4.041,-6.824 0,0 1.767,-4.8 2.778,-6.317 1.011,-1.517 2.779,-5.812 2.779,-5.812 0,0 2.527,-2.021 4.802,-1.768 2.275,0.253 6.064,-0.505 6.064,-0.505 z"
           fill="url(#A)"
           id="path553"
           style="fill:url(#linearGradient585);stroke-width:0.00952784" /><path
           d="m 34.064,33.673 -2.421,-3.712 c 0,0 -1.614,-2.582 -2.422,-2.582 -0.808,0 -1.453,-0.486 -1.937,0 -0.484,0.486 -1.13,1.452 -1.454,2.422 l -0.484,1.613 8.717,2.26 z"
           fill="url(#B)"
           id="path555"
           style="fill:url(#radialGradient587);stroke-width:0.00952784" /><path
           d="m 0,55.955 c 0,0 0.324,-0.806 0.808,-1.132 0.484,-0.326 4.842,-11.299 5.328,-12.43 0.486,-1.131 8.554,-13.399 9.201,-13.238 0.647,0.161 5.327,-0.484 6.943,-0.322 1.616,0.162 3.874,1.292 4.52,1.776 0.646,0.484 1.13,1.776 1.13,1.776 l -3.39,0.968 c 0,0 -0.97,-1.128 -1.938,-1.29 -0.968,-0.162 -4.682,0 -5.65,0.162 -0.968,0.162 -9.041,9.524 -9.364,10.169 -0.323,0.645 -4.844,10.01 -5.004,10.818 L 2.26,54.825 c 0,0 -0.323,0.97 -0.967,0.97 -0.644,0 -1.293,0.16 -1.293,0.16 z"
           fill="url(#C)"
           id="path557"
           style="fill:url(#linearGradient589);stroke-width:0.00952784" /><path
           d="m 33.094,33.514 c 0.325,-0.484 1.779,-0.968 2.423,-1.452 0.644,-0.484 0.97,-2.422 0.97,-2.422 0,0 1.614,-0.97 3.39,-1.13 1.776,-0.16 3.39,-0.484 4.842,-0.162 1.452,0.322 2.259,0.162 2.908,0.969 0.649,0.807 1.612,4.198 1.291,5.167 -0.321,0.969 -3.229,3.389 -4.036,4.196 -0.807,0.807 -3.551,1.453 -4.36,1.453 -0.809,0 -2.097,0.323 -3.228,0.323 -1.131,0 -4.036,-3.552 -4.52,-4.198 -0.484,-0.646 -0.002,-2.261 0.319,-2.744 z"
           fill="url(#B)"
           id="path559"
           style="fill:url(#radialGradient591);stroke-width:0.00952784" /><path
           d="m 35.841,35.451 c 0.646,0.806 1.13,1.453 1.453,2.26 0.323,0.807 0.645,4.842 -0.807,6.134 -1.452,1.292 -3.877,3.068 -4.843,3.712 -0.966,0.644 -1.938,1.938 -3.553,1.938 -1.615,0 -3.066,-0.968 -4.842,-1.938 -1.776,-0.97 -3.552,-2.582 -4.036,-3.872 -0.484,-1.29 -0.646,-4.198 0.484,-5.814 1.13,-1.616 3.874,-4.358 3.874,-4.358 0,0 1.938,-1.452 3.714,-1.776 1.776,-0.324 3.228,-0.162 4.198,0.162 0.97,0.324 3.712,2.742 4.359,3.551 z"
           fill="#272023"
           id="path561"
           style="stroke-width:0.00952784" /><path
           d="m 20.665,44.653 c -0.322,-0.968 -0.645,-3.068 -0.16,-4.36 0.485,-1.292 3.228,-4.682 5.166,-5.327 1.938,-0.645 3.066,-0.808 5.326,-0.645 2.26,0.163 3.714,1.936 3.714,1.936 0,0 -2.582,0 -4.037,0.486 -1.455,0.486 -3.227,1.612 -4.681,2.744 -1.454,1.132 -2.422,2.905 -2.584,3.873 -0.162,0.968 -0.16,1.454 -0.806,1.938 -0.646,0.484 -1.292,0 -1.292,0 0,0 -0.322,0.322 -0.645,-0.645 z"
           fill="url(#D)"
           id="path563"
           style="fill:url(#linearGradient593);stroke-width:0.00952784" /></g><path
         d="m 21.795,41.426 c 0,0 -0.323,-2.262 1.454,-3.876 1.777,-1.614 3.389,-1.776 3.389,-1.776 0,0 -1.451,0.646 -3.228,2.422 -1.777,1.776 -1.615,3.229 -1.615,3.229 z"
         stroke="none"
         opacity="0.3"
         class="B"
         id="path567"
         style="stroke-width:0.00732973" /><g
         class="C D"
         id="g577"><path
           d="m 44.882,29.801 c 0,0 -2.098,-9.688 -1.614,-10.656 0.484,-0.968 5.004,-3.876 6.296,-4.358 1.292,-0.482 8.719,-3.39 9.362,-3.39 0.643,0 10.495,0.484 11.141,0.645 0.646,0.161 4.52,1.778 4.52,1.778 0,0 -3.066,0 -4.842,-0.324 -1.776,-0.324 -9.365,-0.646 -10.654,-0.486 -1.289,0.16 -3.552,2.26 -4.52,2.746 -0.968,0.486 -4.682,2.584 -5.651,2.906 -0.969,0.322 -3.067,0.968 -3.229,1.776 -0.162,0.808 2.099,9.848 2.099,9.848 l -2.907,-0.482 z"
           fill="url(#E)"
           class="B"
           id="path569"
           style="fill:url(#linearGradient595);stroke-width:0.00952784" /><path
           d="m 67.968,37.551 c 0,0 -0.646,0.968 -1.452,0.806 -0.806,-0.162 -1.292,0.162 -1.938,-0.484 -0.646,-0.646 -6.78,-2.421 -8.396,-3.228 -1.616,-0.807 -4.842,-0.808 -5.972,-0.97 -1.13,-0.162 -3.231,-1.128 -3.715,-0.966 -0.484,0.162 0.325,0.644 -0.484,1.29 -0.809,0.646 -1.452,0.324 -1.936,-0.162 -0.484,-0.486 -0.807,-2.098 -0.323,-2.906 0.484,-0.808 0.807,-1.614 1.938,-1.776 1.131,-0.162 3.229,0.808 5.004,1.454 1.775,0.646 4.36,0.968 5.488,1.454 1.128,0.486 3.229,2.422 5.006,2.906 1.777,0.484 3.228,1.453 4.036,1.776 0.808,0.323 2.746,0.805 2.746,0.805 z"
           fill="url(#F)"
           class="B"
           id="path571"
           style="fill:url(#linearGradient597);stroke-width:0.00952784" /><path
           d="m 23.732,72.26 1.614,-10.98 c 0.324,-1.291 1.454,-13.883 1.616,-14.691 0.162,-0.808 -0.162,-2.744 0.322,-3.23 0.484,-0.486 0.646,-1.129 1.452,-1.129 0.806,0 0.969,1.776 0.969,1.776 l -1.615,10.17 c 0,0.808 -1.29,5.652 -1.454,6.942 -0.164,1.29 -0.807,9.846 -1.612,10.494 -0.805,0.648 -1.291,0.648 -1.291,0.648 z"
           fill="url(#G)"
           class="B"
           id="path573"
           style="fill:url(#linearGradient599);stroke-width:0.00952784" /><path
           d="m 44.234,58.86 c 0,0 0.646,0.645 0.97,0 0.324,-0.645 0,-1.452 -0.324,-2.584 -0.324,-1.132 -1.13,-2.583 -1.775,-4.036 -0.645,-1.453 -0.485,-7.748 -1.131,-8.717 -0.646,-0.969 -1.29,-5.652 -1.454,-6.458 -0.164,-0.806 -0.969,-1.292 -1.775,-1.292 -0.806,0 -1.292,0.97 -1.292,0.97 l 0.646,3.873 c 0.324,1.454 2.098,6.458 2.26,7.266 0.162,0.808 0.97,1.13 1.292,2.42 0.322,1.29 -0.322,2.26 0.322,3.392 0.644,1.132 1.615,2.26 1.776,3.067 l 0.485,2.097 z"
           fill="url(#H)"
           class="B"
           id="path575"
           style="fill:url(#linearGradient601);stroke-width:0.00952784" /></g><path
         d="m 45.29,18.538 c 0,0 -0.15,-0.997 2.885,-2.631 3.035,-1.634 5.908,-2.089 5.908,-2.089 0,0 -2.542,0.803 -5.561,2.565 -3.019,1.762 -3.23,2.154 -3.23,2.154 z m 1.413,11.274 c 0,0 0.354,-0.52 2.969,0.442 a 22.55,22.55 0 0 1 4.605,2.354 c 0,0 -1.94,-1.054 -4.602,-1.953 L 46.704,29.812 Z M 31.435,15.046 c 0,0 -0.569,-0.414 0.749,-3.464 1.318,-3.05 3.079,-5.365 3.079,-5.365 0,0 -1.368,2.259 -2.618,5.364 l -1.21,3.466 z"
         stroke="none"
         opacity="0.3"
         class="B"
         id="path579"
         style="stroke-width:0.00732973" /></symbol></g></g></svg>
